Coordinates
version=1
nRows=26
nColumns=24
inDegrees=yes

Units are S.I. units (second, meters, Newtons, ...)
Angles are in degrees.

endheader
time	pelvis_tilt	pelvis_list	pelvis_rotation	pelvis_tx	pelvis_ty	pelvis_tz	hip_flexion_r	hip_adduction_r	hip_rotation_r	knee_angle_r	ankle_angle_r	subtalar_angle_r	mtp_angle_r	hip_flexion_l	hip_adduction_l	hip_rotation_l	knee_angle_l	ankle_angle_l	subtalar_angle_l	mtp_angle_l	lumbar_extension	lumbar_bending	lumbar_rotation
      4.25000000	      6.92356388	      1.03616874	     -3.69406887	      1.24582812	      0.90509640	     -0.31640031	     13.19329708	      4.52238629	      1.57138379	    -13.32424170	     14.84130860	      5.42569907	      0.00000000	    -13.71952181	      6.07342765	     -6.29089323	    -32.48461896	      6.54147546	     -6.86990508	      0.00000000	    -25.42657817	     -1.63725827	     -8.40914974
      4.26000000	      6.98763215	      0.25932702	     -3.52561251	      1.26210776	      0.90370477	     -0.31530307	     13.15168474	      5.47068371	      1.38965245	    -15.28038148	     15.38048812	      5.27073385	      0.00000000	    -11.21599231	      4.35160440	     -7.44989833	    -37.99058416	      3.81013741	     -5.77977989	      0.00000000	    -25.51144981	     -0.97186908	     -7.28761844
      4.27000000	      6.92329515	     -0.52345259	     -3.37583616	      1.27787581	      0.90225301	     -0.31420660	     13.41853567	      6.38812051	      1.00993961	    -17.56818411	     16.39338919	      5.46101530	      0.00000000	     -8.44817710	      2.59732384	     -8.21756885	    -43.32342788	      1.26827172	     -4.65161716	      0.00000000	    -25.50996681	     -0.30906608	     -6.16263440
      4.28000000	      6.79845723	     -1.27146509	     -3.20815450	      1.29316280	      0.90094443	     -0.31318115	     13.76782811	      7.21346310	      0.46456385	    -19.86426095	     17.74186812	      5.92076789	      0.00000000	     -5.55228119	      0.90486236	     -8.59018105	    -48.31896746	     -0.58170147	     -3.38235684	      0.00000000	    -25.50497561	      0.31677192	     -5.13526156
      4.29000000	      6.64224578	     -1.95725250	     -2.90408476	      1.30815048	      0.90000201	     -0.31239807	     13.97243213	      7.90008281	     -0.22780358	    -21.80827712	     19.23204959	      6.47584800	      0.00000000	     -2.60933803	     -0.62715594	     -8.46018533	    -52.83724043	     -1.45437125	     -1.99478756	      0.00000000	    -25.50164452	      0.91774047	     -4.18391304
      4.30000000	      6.53402542	     -2.62288463	     -2.27623688	      1.32314493	      0.89969572	     -0.31198017	     13.74182682	      8.50432218	     -1.01970011	    -23.04908773	     20.55701169	      6.74372948	      0.00000000	      0.27276894	     -2.04064126	     -7.79599086	    -56.81101457	     -1.18811560	     -0.34620716	      0.00000000	    -25.53985113	      1.58674592	     -3.55387366
      4.31000000	      6.52415664	     -3.24787371	     -1.13707757	      1.33847652	      0.90021013	     -0.31219859	     12.92769691	      8.97320434	     -2.15378169	    -23.43152368	     21.77966719	      6.93111524	      0.00000000	      3.02625440	     -3.21945773	     -6.45775724	    -60.14563749	     -0.05901069	      1.20270499	      0.00000000	    -25.60442761	      2.37364315	     -3.31026588
      4.32000000	      6.63975214	     -3.80782445	      0.52842001	      1.35427587	      0.90159265	     -0.31302855	     11.45754640	      9.35847683	     -3.55737996	    -22.87450409	     22.80351907	      6.98732808	      0.00000000	      5.60939788	     -4.09138215	     -4.52975201	    -62.80046088	      1.61475650	      2.50686310	      0.00000000	    -25.67577558	      3.25417440	     -3.48005916
      4.33000000	      6.86215998	     -4.21874113	      2.50376526	      1.37033377	      0.90372703	     -0.31419042	      9.42829711	      9.69317338	     -5.01068437	    -21.49425649	     23.52635842	      6.81292353	      0.00000000	      8.00224668	     -4.56938844	     -2.32375983	    -64.76140101	      3.48441067	      3.45430687	      0.00000000	    -25.75424227	      4.06115636	     -3.90002410
      4.34000000	      7.09315073	     -4.40630575	      4.48516277	      1.38632970	      0.90635637	     -0.31534297	      7.07500367	      9.98383491	     -6.21884375	    -19.52420210	     23.92043983	      6.42680027	      0.00000000	     10.24543124	     -4.60226168	     -0.18088531	    -66.05396946	      5.26620917	      3.96854039	      0.00000000	    -25.80554142	      4.61459671	     -4.32094872
      4.35000000	      7.28944812	     -4.36444185	      6.23723778	      1.40220477	      0.90931927	     -0.31620327	      4.49746062	     10.26117423	     -6.81883529	    -17.09513087	     23.94383385	      5.65207243	      0.00000000	     12.29036737	     -4.26878364	      1.61449221	    -66.69483300	      6.88890358	      4.14563351	      0.00000000	    -25.82222162	      4.83002708	     -4.61202493
      4.36000000	      7.42016630	     -4.08934927	      7.70034846	      1.41798395	      0.91246377	     -0.31682173	      1.82558017	     10.42333039	     -7.00479291	    -14.42054963	     23.56958235	      4.67592905	      0.00000000	     14.11277092	     -3.59925906	      2.99978865	    -66.70827211	      8.26143088	      3.88722009	      0.00000000	    -25.80284917	      4.69923781	     -4.67719884
      4.37000000	      7.40805014	     -3.60426111	      8.86241081	      1.43376648	      0.91551862	     -0.31722610	     -0.79990047	     10.43136295	     -6.70351155	    -11.64978056	     23.00023334	      3.39788816	      0.00000000	     15.77711338	     -2.64784909	      3.97449980	    -66.14663386	      9.23706783	      3.16851649	      0.00000000	    -25.64731288	      4.24414842	     -4.56832440
      4.38000000	      7.20972375	     -2.97460053	      9.71237333	      1.44965567	      0.91826588	     -0.31743289	     -3.27780069	     10.26526239	     -6.08529251	     -8.89685248	     22.22443487	      2.07111643	      0.00000000	     17.33062720	     -1.54529685	      4.51261426	    -65.06875760	     10.05553567	      2.31378682	      0.00000000	    -25.29537532	      3.53196584	     -4.29232620
      4.39000000	      6.91663058	     -2.26444571	     10.29733871	      1.46562895	      0.92063801	     -0.31755916	     -5.61516765	      9.94217344	     -5.47096235	     -6.30020792	     21.43786302	      0.97249748	      0.00000000	     18.70441512	     -0.37794016	      4.69676111	    -63.51784039	     10.65211313	      1.16152805	      0.00000000	    -24.85534139	      2.67889428	     -3.79398169
      4.40000000	      6.49996106	     -1.51955494	     10.67330259	      1.48167665	      0.92244424	     -0.31765108	     -7.74097328	      9.49656448	     -4.89796756	     -3.90256168	     20.70384313	      0.09208668	      0.00000000	     19.97693753	      0.80014789	      4.60369559	    -61.55622526	     11.05399075	     -0.19031438	      0.00000000	    -24.28025354	      1.74744203	     -3.17884375
      4.41000000	      5.97115715	     -0.77717642	     10.85840437	      1.49779078	      0.92359960	     -0.31771482	     -9.62975173	      8.96244090	     -4.40279064	     -1.74711371	     20.09215611	     -0.51262284	      0.00000000	     21.16956897	      1.93455426	      4.27517258	    -59.22762787	     11.28549623	     -1.65531667	      0.00000000	    -23.57773178	      0.79169748	     -2.44886152
      4.42000000	      5.37080125	     -0.09410026	     10.88064969	      1.51392425	      0.92405298	     -0.31775426	    -11.31968058	      8.41064758	     -3.76101178	      0.18662256	     19.57415000	     -1.15135674	      0.00000000	     22.28613380	      2.95348095	      3.77278846	    -56.59285194	     11.47861349	     -3.09060191	      0.00000000	    -22.79693345	     -0.10914454	     -1.57632672
      4.43000000	      4.76962613	      0.47227722	     10.80171978	      1.52998480	      0.92389269	     -0.31784785	    -12.78338388	      7.91905645	     -3.51947845	      1.76904959	     19.31901936	     -1.09583966	      0.00000000	     23.29810283	      3.81067192	      3.20564678	    -53.70426697	     11.56420083	     -4.46755394	      0.00000000	    -22.02117045	     -0.84375780	     -0.64403303
      4.44000000	      4.23825631	      0.98324789	     10.69015135	      1.54588746	      0.92319392	     -0.31802361	    -14.26464756	      7.45080136	     -2.61931322	      3.27438671	     18.68298085	     -2.08257854	      0.00000000	     24.13325611	      4.58194195	      2.65750717	    -50.59869192	     11.73949226	     -5.41930681	      0.00000000	    -21.37286207	     -1.46306327	      0.23897007
      4.45000000	      3.85493188	      1.34850869	     10.59708581	      1.56148235	      0.92213630	     -0.31836435	    -15.62006362	      7.14113387	     -2.27811265	      4.37382154	     18.42354275	     -2.24864244	      0.00000000	     24.74613206	      5.20618923	      2.24922040	    -47.32070890	     11.90485491	     -6.09721462	      0.00000000	    -20.95823262	     -1.81642896	      1.00570823
      4.46000000	      3.63197444	      1.55669362	     10.55335631	      1.57666447	      0.92076878	     -0.31885041	    -16.87808554	      7.02657806	     -2.18950293	      5.10599698	     18.43457018	     -2.15595778	      0.00000000	     25.14531420	      5.67701458	      2.01639751	    -43.93088083	     12.18343315	     -6.21562722	      0.00000000	    -20.81334689	     -1.90087097	      1.70496700
      4.47000000	      3.76977989	      1.66181987	     10.66383193	      1.59133172	      0.91941830	     -0.31964488	    -18.32369834	      7.11800718	     -2.16423474	      5.58654536	     18.38226829	     -2.23828383	      0.00000000	     25.07858344	      6.10999547	      2.17688293	    -40.41325470	     12.47009096	     -6.03502629	      0.00000000	    -21.21898739	     -1.69495787	      2.09990817
      4.48000000	      4.10532627	      1.63752594	     10.88179463	      1.60561626	      0.91794429	     -0.32063960	    -19.75561768	      7.41707178	     -2.25103006	      5.76471875	     18.39336085	     -2.35414144	      0.00000000	     24.73339789	      6.45073698	      2.63125545	    -36.83816417	     12.70641701	     -5.44131845	      0.00000000	    -21.93976379	     -1.23314886	      2.30233709
      4.49000000	      4.65436853	      1.55470936	     11.12459216	      1.61980795	      0.91647330	     -0.32170434	    -21.23843018	      7.84295778	     -2.42926442	      5.67070829	     18.48375299	     -2.42825613	      0.00000000	     24.03478094	      6.72205686	      3.31056149	    -33.20381721	     12.84983849	     -4.57845931	      0.00000000	    -22.95347657	     -0.63874253	      2.39826845
      4.50000000	      5.34668477	      1.45535931	     11.26634824	      1.63431194	      0.91503294	     -0.32266363	    -22.74262755	      8.29998838	     -2.62773922	      5.31935348	     18.66894413	     -2.40290390	      0.00000000	     23.01181244	      6.90610387	      4.08382380	    -29.53020767	     12.84273746	     -3.60671097	      0.00000000	    -24.11083155	     -0.03295358	      2.50351461
